<svg width="128" height="128" viewBox="0 0 128 128" fill="none" xmlns="http://www.w3.org/2000/svg">
<g id="favicon">
<g id="Group">
<path id="Vector" d="M12.291 108.046L12.291 53.9546C12.291 32.6273 30.6764 15.3182 53.3299 15.3182H66.4623C69.1873 15.3182 71.387 17.3891 71.387 19.9545V74.0455C71.387 95.3728 53.0016 112.682 30.3481 112.682H17.2157C14.4907 112.682 12.291 110.611 12.291 108.046Z" fill="#22577A"/>
<path id="Vector_2" d="M53.3299 57.0449H110.784C113.509 57.0449 115.709 59.1158 115.709 61.6813V74.0449C115.709 95.3722 97.3236 112.681 74.6701 112.681H17.2157C14.4907 112.681 12.291 110.61 12.291 108.045V95.6813C12.291 74.354 30.6764 57.0449 53.3299 57.0449Z" fill="#57CC99"/>
</g>
</g>
</svg>
