<svg width="60" height="60" viewBox="0 0 60 60" fill="none" xmlns="http://www.w3.org/2000/svg">
<path d="M49.661 20.1575C49.3493 19.9291 48.921 19.9458 48.6259 20.1958C47.5992 21.0742 44.1173 21.1909 40.7054 20.4625C39.0203 20.1025 37.4302 19.244 35.6968 17.7623C34.6217 16.8439 33.175 16.4822 31.7232 16.7689C31.0831 16.8955 30.4831 17.1673 29.9514 17.5656C29.4164 17.1606 28.8113 16.8855 28.1663 16.7589C26.7129 16.4755 25.2661 16.8373 24.1927 17.7539C22.4592 19.2374 20.8675 20.0941 19.184 20.4541C15.7588 21.1858 12.402 21.0775 11.3752 20.1991C11.0818 19.9491 10.6535 19.9307 10.3401 20.1607C10.0285 20.3891 9.91509 20.8041 10.0667 21.1592C10.2151 21.5058 10.3768 21.8342 10.5534 22.1476C12.7452 31.8582 20.804 40.7421 29.773 43.3039C29.848 43.3255 29.9246 43.3355 30.0013 43.3355C30.078 43.3355 30.1547 43.3255 30.233 43.3022C39.0902 40.7704 47.3524 31.6415 49.4792 22.0475C49.6376 21.7575 49.7992 21.4725 49.9342 21.1558C50.0843 20.8009 49.971 20.3858 49.661 20.1575ZM29.9998 41.6338C22.811 39.4787 16.0655 32.6916 13.157 25.0311C13.212 25.0678 13.277 25.0911 13.332 25.1261C13.657 25.3345 13.9954 25.5245 14.3571 25.6895C14.5171 25.7629 14.6905 25.8195 14.8571 25.8829C15.1071 25.9813 15.3638 26.0745 15.6322 26.1529C15.8288 26.2113 16.0305 26.2646 16.2372 26.3129C16.5389 26.3829 16.8539 26.4379 17.1739 26.4863C17.3756 26.5147 17.5756 26.5497 17.7856 26.5697C18.2206 26.613 18.674 26.6363 19.1407 26.6413C19.349 26.6447 19.564 26.6379 19.7791 26.6329C20.1607 26.6229 20.5541 26.6013 20.9558 26.5679C21.1541 26.5513 21.3492 26.5396 21.5525 26.5163C22.1359 26.4513 22.7375 26.3629 23.3609 26.2496C23.5393 26.218 23.7243 26.1746 23.906 26.138C24.406 26.038 24.9177 25.9213 25.4427 25.7913C25.6644 25.7363 25.8877 25.6797 26.1144 25.618C26.7794 25.4379 27.4595 25.2413 28.1629 25.0146C28.2045 25.0012 28.2412 24.9929 28.2829 24.9796C28.8879 24.8479 29.4479 24.5929 29.938 24.2329C30.3596 24.5479 30.8297 24.7613 31.3064 24.8929C31.3931 24.9179 31.4731 24.9596 31.5614 24.9796C33.2915 25.5396 34.9083 25.9613 36.4134 26.2413C36.595 26.2746 36.76 26.2879 36.9401 26.3179C37.4985 26.4113 38.0568 26.5046 38.5835 26.5579C39.0352 26.6046 39.4569 26.6113 39.8852 26.6279C40.1153 26.6363 40.3586 26.6646 40.5819 26.6646C40.5936 26.6646 40.6069 26.6662 40.6186 26.6662C41.227 26.6662 41.8053 26.6296 42.3603 26.5662C42.4687 26.5546 42.5653 26.5279 42.672 26.5129C43.1154 26.4512 43.547 26.3778 43.9554 26.2728C44.1104 26.2345 44.2521 26.1778 44.4021 26.1328C44.7421 26.0295 45.0771 25.9212 45.3921 25.7878C45.5505 25.7212 45.6972 25.6394 45.8488 25.5662C46.1322 25.4261 46.4105 25.2778 46.6722 25.1111C46.7289 25.0745 46.7956 25.0495 46.8522 25.0111C43.9457 32.6816 37.1969 39.477 29.9998 41.6338ZM47.1008 22.5442C46.8908 22.7776 46.6508 22.9793 46.4092 23.1793C46.2592 23.3043 46.1141 23.4343 45.9508 23.5477C45.6708 23.7393 45.3657 23.9043 45.0524 24.0577C44.8873 24.1393 44.7207 24.2194 44.5457 24.2894C44.2073 24.4244 43.8506 24.536 43.4773 24.631C43.2839 24.6794 43.0839 24.7227 42.8806 24.761C42.4922 24.8344 42.0905 24.891 41.6671 24.926C41.4338 24.9444 41.1888 24.951 40.9455 24.9577C40.5171 24.9693 40.0804 24.9727 39.6204 24.9493C39.3287 24.9327 39.017 24.896 38.712 24.866C38.2619 24.821 37.8135 24.7776 37.3335 24.6993C36.9169 24.6309 36.4735 24.5327 36.0368 24.4409C35.6318 24.3559 35.2401 24.2859 34.8167 24.1809C33.9283 23.9575 33.0082 23.6992 32.0415 23.3842C32.0149 23.3759 31.9882 23.3692 31.9599 23.3626C31.4165 23.2459 30.9315 22.9676 30.5548 22.5575C30.3964 22.3859 30.1748 22.2875 29.9431 22.2875C29.9415 22.2875 29.9415 22.2875 29.9415 22.2875C29.7148 22.2875 29.4981 22.3825 29.3398 22.5475C29.3382 22.5475 29.3332 22.5492 29.3282 22.5525C28.9532 22.9576 28.4698 23.2342 27.8481 23.3726C27.8381 23.3759 27.8281 23.3792 27.8181 23.3826C26.898 23.681 26.0246 23.926 25.1779 24.141C25.0395 24.176 24.8963 24.216 24.7595 24.2476C23.9395 24.446 23.1578 24.601 22.4094 24.7177C22.3027 24.7343 22.196 24.751 22.0927 24.766C21.316 24.8777 20.5726 24.9494 19.8759 24.971C19.8493 24.9727 19.8226 24.9744 19.7959 24.9744C16.6391 25.0594 14.324 24.2027 12.8271 22.4542C14.8589 22.7793 17.4474 22.5292 19.5309 22.0809C21.471 21.6658 23.3495 20.6658 25.2746 19.019C25.958 18.4356 26.8931 18.2073 27.8432 18.394C28.5482 18.5324 29.0466 18.9374 29.3399 19.2507C29.4965 19.4191 29.7183 19.5157 29.9483 19.5157C30.1767 19.5157 30.3967 19.4207 30.555 19.254C30.8483 18.944 31.3434 18.544 32.0451 18.4056C32.9951 18.2173 33.9302 18.4473 34.6136 19.0307C36.5371 20.6758 38.4172 21.6775 40.3573 22.0925C42.5991 22.5709 45.176 22.7742 47.1677 22.4542C47.1441 22.4826 47.1258 22.5176 47.1008 22.5442Z" fill="white"/>
<path d="M32.5 26.668H27.4997C27.0396 26.668 26.6663 27.0414 26.6663 27.5014C26.6663 27.9614 27.0396 28.3348 27.4997 28.3348H32.5C32.96 28.3348 33.3334 27.9614 33.3334 27.5014C33.3334 27.0414 32.96 26.668 32.5 26.668Z" fill="white"/>
</svg>
