<svg width="60" height="60" viewBox="0 0 60 60" fill="none" xmlns="http://www.w3.org/2000/svg">
<path d="M16.9408 34.9006L17.7783 34.5015C20.5014 33.2036 23.3692 32.2345 26.3203 31.6118C28.9031 31.0681 31.5385 30.7918 34.1826 30.7918H36.362C38.9754 30.7918 41.5845 31.0593 44.1454 31.5943L49.0873 32.6248C49.4995 32.7125 49.7406 32.1775 49.403 31.9232C45.702 29.1475 41.51 27.104 37.046 25.9026C33.9634 25.0738 30.7886 24.6528 27.5964 24.6528H25.1978C22.1195 24.6528 19.0544 25.0431 16.077 25.8149L13.845 26.3937C11.1526 27.0997 9.70994 30.0332 10.8062 32.5897C11.8235 34.962 14.608 36.0144 16.9364 34.905L16.9408 34.9006Z" stroke="white" stroke-width="2" stroke-miterlimit="10"/>
</svg>
