<svg width="60" height="60" viewBox="0 0 60 60" fill="none" xmlns="http://www.w3.org/2000/svg">
<path d="M25.3876 38.0228C24.075 37.8231 21.4822 37.2361 19.2727 35.1692C16.101 32.2055 15.8075 28.1492 15.6037 25.3853C15.4325 23.0371 15.2246 20.2324 16.8267 17.232C18.7672 13.5956 22.0611 12.0913 23.3493 11.5247C24.5112 11.0151 29.9005 8.83002 35.1716 11.5247C37.9763 12.9597 39.4643 15.1162 40.0635 16.009C42.322 19.3681 42.5095 22.764 42.5095 24.1623V49.8451" stroke="white" stroke-width="2" stroke-miterlimit="10"/>
<path d="M22.7379 21.5125C20.4428 30.3874 24.6254 40.3996 32.9295 36.1884C35.5264 30.1794 29.6356 18.9116 22.7379 21.5125Z" stroke="white" stroke-width="2" stroke-miterlimit="10"/>
<path d="M25.5915 37.2075C26.199 45.1203 9.6478 39.1195 12.5463 49.8451" stroke="white" stroke-width="2" stroke-miterlimit="10" stroke-linecap="round"/>
<path d="M39 31V50.1602" stroke="white" stroke-width="2" stroke-miterlimit="10" stroke-linecap="round"/>
<path d="M36.1909 36.7998V49.8451" stroke="white" stroke-width="2" stroke-miterlimit="10" stroke-linecap="round"/>
<path d="M32.9294 36.3921V49.845" stroke="white" stroke-width="2" stroke-miterlimit="10" stroke-linecap="round"/>
<path d="M43.7327 42.5071C46.3376 42.8088 47.9724 49.0256 46.994 49.845" stroke="white" stroke-width="2" stroke-miterlimit="10" stroke-linecap="round"/>
</svg>
