<svg width="223" height="49" viewBox="0 0 223 49" fill="none" xmlns="http://www.w3.org/2000/svg">
<path d="M113.391 46.767C112.822 47.3031 112.222 47.6731 111.597 47.8676C110.973 48.0669 110.242 48.1665 109.415 48.1665C108.73 48.1665 108.085 48.0431 107.475 47.8012C106.866 47.5545 106.326 47.2224 105.863 46.8002C105.399 46.3779 105.031 45.8798 104.764 45.3058C104.497 44.7317 104.361 44.1245 104.361 43.4793C104.361 42.6063 104.588 41.8188 105.047 41.1119C105.5 40.4098 106.13 39.8357 106.926 39.3898C107.365 39.1431 107.823 38.9818 108.307 38.8964C108.786 38.811 109.284 38.7683 109.809 38.7683C110.524 38.7683 111.169 38.8917 111.749 39.1384C112.323 39.3851 112.867 39.7266 113.371 40.1726L112.837 40.6992C112.676 40.4999 112.469 40.3291 112.217 40.1821C111.965 40.035 111.703 39.9164 111.436 39.8168C111.169 39.7171 110.892 39.646 110.605 39.5985C110.318 39.5511 110.055 39.5274 109.814 39.5274C109.229 39.5274 108.675 39.627 108.156 39.8263C107.637 40.0255 107.178 40.3007 106.79 40.6517C106.397 41.0028 106.09 41.4203 105.863 41.9042C105.636 42.3881 105.52 42.91 105.52 43.4793C105.52 44.0486 105.631 44.5704 105.863 45.0543C106.09 45.5382 106.397 45.9557 106.79 46.3068C107.178 46.6579 107.637 46.933 108.156 47.1323C108.675 47.3315 109.229 47.4312 109.814 47.4312C110.055 47.4312 110.323 47.4027 110.605 47.3505C110.887 47.2983 111.169 47.2224 111.446 47.1228C111.723 47.0232 111.985 46.8998 112.237 46.7527C112.489 46.6057 112.696 46.4349 112.857 46.2356L113.391 46.7622V46.767Z" fill="#57CC99"/>
<path d="M117.05 38.8208H118.199V47.4125H123.807V48.1953H117.05V38.8255V38.8208Z" fill="#57CC99"/>
<path d="M127.466 38.7781H128.615V48.1952H127.466V38.7781Z" fill="#57CC99"/>
<path d="M132.273 38.8208H132.908L139.131 46.1458V38.8208H139.912V48.1905H139.353L133.11 40.8655V48.1905H132.278V38.8208H132.273Z" fill="#57CC99"/>
<path d="M143.566 38.7781H144.715V48.1952H143.566V38.7781Z" fill="#57CC99"/>
<path d="M157.398 46.767C156.829 47.3031 156.229 47.6731 155.604 47.8676C154.98 48.0669 154.249 48.1665 153.422 48.1665C152.737 48.1665 152.092 48.0431 151.482 47.8012C150.873 47.5545 150.333 47.2224 149.87 46.8002C149.406 46.3779 149.038 45.8798 148.771 45.3058C148.504 44.7317 148.368 44.1245 148.368 43.4793C148.368 42.6063 148.595 41.8188 149.053 41.1119C149.512 40.405 150.137 39.8357 150.933 39.3898C151.372 39.1431 151.83 38.9818 152.314 38.8964C152.793 38.811 153.291 38.7683 153.816 38.7683C154.531 38.7683 155.176 38.8917 155.756 39.1384C156.335 39.3851 156.874 39.7266 157.378 40.1726L156.839 40.6992C156.678 40.4999 156.471 40.3291 156.219 40.1821C155.967 40.035 155.705 39.9164 155.438 39.8168C155.171 39.7171 154.894 39.646 154.607 39.5985C154.319 39.5511 154.057 39.5274 153.816 39.5274C153.231 39.5274 152.677 39.627 152.158 39.8263C151.639 40.0255 151.18 40.3007 150.792 40.6517C150.404 41.0028 150.092 41.4203 149.865 41.9042C149.638 42.3881 149.522 42.91 149.522 43.4793C149.522 44.0486 149.638 44.5704 149.865 45.0543C150.092 45.5382 150.404 45.9557 150.792 46.3068C151.18 46.6579 151.639 46.933 152.158 47.1323C152.677 47.3315 153.231 47.4312 153.816 47.4312C154.057 47.4312 154.324 47.4027 154.607 47.3505C154.889 47.2983 155.171 47.2224 155.448 47.1228C155.725 47.0232 155.987 46.8998 156.239 46.7527C156.491 46.6057 156.698 46.4349 156.859 46.2356L157.398 46.7622V46.767Z" fill="#57CC99"/>
<path d="M59.7191 23.8432H59.7544V29.0713H43.2814V29.0381C43.4628 29.0381 45.2063 28.8009 45.2063 26.2011V5.29356C45.2063 2.6985 43.4628 2.45655 43.2814 2.45655V2.42334H49.8827V2.45655C49.7013 2.45655 47.9577 2.69376 47.9577 5.29356V28.6586H56.7007C59.4571 28.6586 59.7141 24.2844 59.7141 23.8432H59.7191Z" fill="#22577A"/>
<path d="M62.8736 15.1994L62.7275 15.0619C62.8384 12.5664 65.7762 9.39258 70.8557 9.39258C73.1435 9.39258 75.3909 9.90495 76.8422 11.1005C78.0415 12.092 78.621 13.5247 78.621 15.4034V26.6756C78.621 28.8294 80.0723 29.0334 80.2185 29.0334V29.0666H75.9352V24.2845C74.5897 26.9839 71.6166 29.2706 67.6961 29.2706C63.307 29.2706 61.7802 27.1168 61.7802 24.9345C61.7802 20.7311 66.7538 17.5241 75.9301 17.4197V15.9158C75.9301 14.4451 75.6026 13.2875 74.9878 12.3956C74.0102 10.9249 72.2314 10.2086 70.2006 10.2086C66.4263 10.2086 63.307 12.6661 62.8686 15.1947L62.8736 15.1994ZM68.5729 28.2838C72.2011 28.2838 75.0684 25.722 75.9402 23.3641V17.8277C67.0864 17.9653 64.6172 21.7227 64.6172 24.4553C64.6172 26.4384 65.8518 28.2791 68.5729 28.2791V28.2838Z" fill="#22577A"/>
<path d="M82.5415 9.62967V9.59646H86.8248V14.1746C87.7318 11.7171 90.2716 9.25488 94.4087 9.25488C97.1652 9.25488 99.3774 10.0756 100.541 11.8167C101.156 12.7751 101.484 14.0702 101.484 15.4745V26.6802C101.484 28.834 102.935 29.038 103.081 29.038V29.0713H97.2004V29.038C97.3466 29.038 98.7979 28.834 98.7979 26.6802V16.4328C98.7979 14.8625 98.5459 13.5958 98.0722 12.609C97.2357 10.9343 95.7844 10.0804 93.7184 10.0804C90.2716 10.0804 87.2229 12.7798 86.8248 15.6832V26.6849C86.8248 28.8388 88.2761 29.0428 88.4222 29.0428V29.076H82.5415V29.0428C82.6876 29.0428 84.1389 28.8388 84.1389 26.6849V11.997C84.1389 9.84316 82.6876 9.63916 82.5415 9.63916V9.62967Z" fill="#22577A"/>
<path d="M120.058 1.7732V1.73999H124.341V26.6801C124.341 28.8339 125.793 29.0379 125.939 29.0379V29.0711H121.656V25.7929C120.819 27.4344 118.753 29.4127 115.014 29.4127C108.337 29.4127 105.686 24.4598 105.686 19.5069C105.686 13.5292 109.788 9.25949 115.775 9.25949C119.222 9.25949 121.217 11.1714 121.656 11.9921V4.13105C121.656 1.9772 120.204 1.7732 120.058 1.7732ZM115.74 28.592C118.859 28.592 121.399 26.6089 121.656 24.289V12.9457C121.076 11.475 119.005 10.0755 116.324 10.0755C112.404 10.0755 108.453 12.5709 108.453 19.1606C108.453 25.0718 111.32 28.5872 115.745 28.5872L115.74 28.592Z" fill="#22577A"/>
<path d="M157.393 29.0334C157.54 29.0334 158.991 28.8294 158.991 26.6756V16.4282C158.991 14.8579 158.739 13.5912 158.265 12.6044C157.429 10.9297 155.977 10.0758 153.911 10.0758C150.575 10.0758 147.925 12.6376 147.416 15.4367V26.6756C147.416 28.8294 148.867 29.0334 149.013 29.0334V29.0666H143.133V29.0334C143.279 29.0334 144.73 28.8294 144.73 26.6756V16.4282C144.73 14.8579 144.478 13.5912 144.004 12.6044C143.168 10.9297 141.717 10.0758 139.65 10.0758C136.204 10.0758 133.518 12.7752 133.12 15.6786V26.6803C133.12 28.8342 134.571 29.0382 134.717 29.0382V29.0714H128.836V29.0382C128.983 29.0382 130.434 28.8342 130.434 26.6803V11.9924C130.434 9.83855 128.983 9.63455 128.836 9.63455V9.60135H133.12V14.1795C134.027 11.722 136.204 9.25977 140.341 9.25977C143.097 9.25977 145.315 10.0805 146.474 11.8216C146.907 12.4716 147.164 13.2544 147.31 14.1463C148.288 11.722 150.465 9.25977 154.602 9.25977C157.358 9.25977 159.57 10.0805 160.734 11.8216C161.349 12.7799 161.677 14.0751 161.677 15.4794V26.6851C161.677 28.8389 163.128 29.0429 163.274 29.0429V29.0761H157.393V29.0429V29.0334Z" fill="#22577A"/>
<path d="M166.968 15.1994L166.822 15.0619C166.932 12.5664 169.87 9.39258 174.95 9.39258C177.238 9.39258 179.485 9.90495 180.936 11.1005C182.136 12.092 182.715 13.5247 182.715 15.4034V26.6756C182.715 28.8294 184.166 29.0334 184.313 29.0334V29.0666H180.029V24.2845C178.689 26.9839 175.711 29.2706 171.79 29.2706C167.401 29.2706 165.874 27.1168 165.874 24.9345C165.874 20.7311 170.843 17.5241 180.024 17.4197V15.9158C180.024 14.4451 179.697 13.2875 179.082 12.3956C178.104 10.9249 176.325 10.2086 174.295 10.2086C170.52 10.2086 167.401 12.6661 166.968 15.1947V15.1994ZM172.662 28.2838C176.29 28.2838 179.158 25.722 180.029 23.3641V17.8277C171.175 17.9653 168.706 21.7227 168.706 24.4553C168.706 26.4384 169.941 28.2791 172.662 28.2791V28.2838Z" fill="#22577A"/>
<path d="M186.636 9.62967V9.59646H190.919V14.1746C191.826 11.7171 193.64 9.25488 197.596 9.25488C198.432 9.25488 199.556 9.39246 199.989 9.39246V15.2657H199.954C199.702 13.9326 199.41 12.6375 198.795 11.7456C198.286 10.9248 197.49 10.4125 196.255 10.4125C193.716 10.4125 191.322 12.7703 190.924 15.6737V26.6755C190.924 28.8293 192.375 29.0333 192.521 29.0333V29.0665H186.641V29.0333C186.787 29.0333 188.238 28.8293 188.238 26.6755V11.9875C188.238 9.83367 186.787 9.62967 186.641 9.62967H186.636Z" fill="#22577A"/>
<path d="M202.343 29.0332C202.489 29.0332 203.94 28.8292 203.94 26.6753V4.13105C203.94 1.9772 202.489 1.7732 202.343 1.7732V1.73999H206.626V26.6801C206.626 28.8339 208.077 29.0379 208.223 29.0379V29.0711H202.343V29.0379V29.0332ZM214.714 11.6126C216.276 10.3127 214.749 9.62953 214.749 9.62953V9.59632H220.63V9.62953C220.156 9.62953 217.183 10.6211 215.041 12.2578L207.639 17.8607H210.834C213.812 17.8607 214.789 18.4062 216.165 21.0725L218.851 26.1962C219.506 27.4581 220.448 28.5208 222.187 27.7333L222.222 27.7665C220.373 28.9288 219.43 29.1992 218.629 29.1992C217.505 29.1992 216.926 28.72 215.943 26.8414L213.731 22.5052C212.098 19.2934 211.262 18.2687 207.452 18.2687H206.616L214.709 11.6079L214.714 11.6126Z" fill="#22577A"/>
<path d="M0 29.0951L0 12.4905C0 5.94354 5.64387 0.630083 12.5979 0.630083H16.6292C17.4657 0.630083 18.141 1.2658 18.141 2.05333V18.6579C18.141 25.2048 12.4971 30.5183 5.54308 30.5183H1.51175C0.675248 30.5183 0 29.8826 0 29.0951Z" fill="#22577A"/>
<path d="M12.5979 13.4392H30.235C31.0715 13.4392 31.7467 14.0749 31.7467 14.8625V18.6578C31.7467 25.2047 26.1029 30.5182 19.1488 30.5182H1.51175C0.675248 30.5182 0 29.8825 0 29.0949V25.2996C0 18.7527 5.64387 13.4392 12.5979 13.4392Z" fill="#57CC99"/>
</svg>
