<svg width="60" height="61" viewBox="0 0 60 61" fill="none" xmlns="http://www.w3.org/2000/svg">
<path d="M33.5689 11.2476C33.6302 10.8707 33.1521 10.647 32.907 10.9412C27.7469 17.0849 23.313 30.788 24.5632 41.2614C25.4151 50.3161 39.2713 48.309 33.1429 37.2779C27.4098 26.9577 31.7579 22.3921 33.5689 11.2476Z" stroke="white" stroke-width="2" stroke-miterlimit="10"/>
<path d="M10 41.2615H20.1302V42.3891C20.1302 46.7005 24.5 51.1936 29.9347 51.1936C35 51.1936 39.7392 46.7005 39.7392 42.3891V40.6487H50.1575" stroke="white" stroke-width="2" stroke-miterlimit="10"/>
<path d="M12.4513 46.1642C13.1282 46.1642 13.6769 45.6155 13.6769 44.9386C13.6769 44.2616 13.1282 43.7129 12.4513 43.7129C11.7743 43.7129 11.2256 44.2616 11.2256 44.9386C11.2256 45.6155 11.7743 46.1642 12.4513 46.1642Z" fill="white"/>
<path d="M17.2008 48.1559C17.8777 48.1559 18.4265 47.6072 18.4265 46.9303C18.4265 46.2533 17.8777 45.7046 17.2008 45.7046C16.5239 45.7046 15.9751 46.2533 15.9751 46.9303C15.9751 47.6072 16.5239 48.1559 17.2008 48.1559Z" fill="white"/>
<path d="M43.4969 44.9384C44.1738 44.9384 44.7226 44.3897 44.7226 43.7127C44.7226 43.0358 44.1738 42.4871 43.4969 42.4871C42.82 42.4871 42.2712 43.0358 42.2712 43.7127C42.2712 44.3897 42.82 44.9384 43.4969 44.9384Z" fill="white"/>
<path d="M48.7061 45.5512C49.3831 45.5512 49.9318 45.0025 49.9318 44.3255C49.9318 43.6486 49.3831 43.0999 48.7061 43.0999C48.0292 43.0999 47.4805 43.6486 47.4805 44.3255C47.4805 45.0025 48.0292 45.5512 48.7061 45.5512Z" fill="white"/>
</svg>
